<?xml version="1.0" encoding="UTF-8"?> <svg xmlns="http://www.w3.org/2000/svg" fill="none" height="472" viewBox="0 0 1338 472" width="1338"><path d="m230.124 170.179.001-.135c-.021.037-.041.073-.062.108-17.611 29.424-30.371 55.332-33.414 61.621 3.795 42.646-3.53 53.511-7.489 59.383l-.296.44c-2.916 4.385-11.143 18.256-13.224 21.775-.683 3.18-2.968 14.442-3.445 24.709-.783 17.273-11.191 18.102-12.759 18.128-.204.006-.409.011-.613.011-4.446 0-8.472-1.807-11.643-5.227-8.028-8.659-9.479-27.4-9.511-39.449-6.171 5.566-11.52 8.28-16.29 8.28-6.315 0-10.281-4.691-11.293-9.048-5.606-22.284 23.522-47.178 34.078-55.339-2.035-8.563-6.159-29.333-3.783-48.927 1.918-15.937.499-29.214-.53-35.773-5.688.352-10.395 2.483-10.445 2.507-4.253 2.016-8.363 3.044-12.188 3.044-4.103 0-7.503-1.147-10.33-2.883l.038-.023c-53.5937 24.767-90.864 78.85-90.864 141.767 0 36.384 12.5464 69.775 33.4057 96.332l.0151.029c115.1982-54.617 164.2902-54.626 184.1732-54.626l5.76.016.433.064c7.952 1.176 13.074 7.556 12.743 15.874-.297 7.512-5.233 15.81-13.795 16.39l-.366.025-.368-.021c-2.492-.139-5.167-.21-7.95-.21-54.372 0-124.476 26.99-142.5161 36.292-7.6245 3.916-13.3854 6.002-18.0412 7.176l.0266.043c27.4849 24.084 63.3237 38.881 102.7407 38.881 86.29 0 156.249-69.969 156.249-156.265 0-65.833-40.817-121.959-98.448-144.969z" fill="#f68512"></path><path d="m1295.87 388.705v-42.72h9.52v11.522l-1.68-3.522c1.49-2.72 3.66-4.812 6.52-6.28 2.85-1.465 6.14-2.198 9.88-2.198 3.41 0 6.46.666 9.16 2 2.69 1.333 4.81 3.373 6.36 6.118 1.54 2.748 2.32 6.28 2.32 10.602v24.478h-10v-23.198c0-3.787-.9-6.613-2.68-8.48-1.79-1.867-4.28-2.8-7.48-2.8-2.35 0-4.43.478-6.24 1.439-1.82.959-3.22 2.387-4.2 4.281-.99 1.893-1.48 4.28-1.48 7.158v21.6zm-32.4-8c2.45 0 4.64-.532 6.56-1.6 1.92-1.065 3.42-2.611 4.52-4.64 1.09-2.025 1.64-4.4 1.64-7.12 0-2.772-.55-5.16-1.64-7.16-1.1-2-2.6-3.532-4.52-4.598-1.92-1.067-4.08-1.602-6.48-1.602-2.46 0-4.63.535-6.52 1.602-1.9 1.066-3.4 2.598-4.52 4.598s-1.68 4.388-1.68 7.16c0 2.72.56 5.095 1.68 7.12 1.12 2.029 2.62 3.575 4.52 4.64 1.89 1.068 4.04 1.6 6.44 1.6zm0 8.56c-4.38 0-8.27-.945-11.68-2.84-3.42-1.892-6.11-4.492-8.08-7.8-1.98-3.305-2.96-7.065-2.96-11.28 0-4.265.98-8.038 2.96-11.318 1.97-3.282 4.66-5.854 8.08-7.72 3.41-1.867 7.3-2.8 11.68-2.8 4.42 0 8.36.933 11.8 2.8 3.44 1.866 6.13 4.426 8.08 7.678 1.94 3.255 2.92 7.042 2.92 11.36 0 4.215-.98 7.975-2.92 11.28-1.95 3.308-4.64 5.908-8.08 7.8-3.44 1.895-7.38 2.84-11.8 2.84zm-42.32-.56v-42.72h10v42.72zm5.04-49.758c-1.87 0-3.4-.587-4.6-1.762-1.2-1.172-1.8-2.585-1.8-4.238 0-1.707.6-3.134 1.8-4.28 1.2-1.147 2.73-1.72 4.6-1.72 1.86 0 3.4.546 4.6 1.64 1.2 1.093 1.8 2.466 1.8 4.118 0 1.76-.59 3.242-1.76 4.442-1.18 1.198-2.72 1.8-4.64 1.8zm-22.88 50.318c-4.7 0-8.32-1.212-10.88-3.64-2.56-2.425-3.84-6.012-3.84-10.759v-38.321h10v38.08c0 2.028.52 3.602 1.56 4.72 1.04 1.12 2.49 1.682 4.36 1.682 2.24 0 4.1-.587 5.6-1.762l2.8 7.12c-1.18.96-2.62 1.68-4.32 2.16-1.71.482-3.47.72-5.28.72zm-21.76-35.28v-8h28.48v8zm-16.56 34.72v-8.64l-.56-1.838v-15.122c0-2.932-.88-5.211-2.64-6.84-1.76-1.625-4.43-2.44-8-2.44-2.4 0-4.76.375-7.08 1.122s-4.28 1.786-5.88 3.118l-3.92-7.28c2.29-1.758 5.02-3.08 8.2-3.96 3.17-.878 6.46-1.318 9.88-1.318 6.18 0 10.97 1.478 14.36 4.44 3.38 2.958 5.08 7.533 5.08 13.719v25.039zm-13.44.56c-3.2 0-6-.546-8.4-1.64-2.4-1.092-4.26-2.612-5.56-4.56-1.31-1.945-1.96-4.145-1.96-6.6 0-2.4.57-4.56 1.72-6.48 1.14-1.92 3.02-3.44 5.64-4.56 2.61-1.118 6.08-1.68 10.4-1.68h12.4v6.64h-11.68c-3.42 0-5.71.548-6.88 1.642-1.18 1.093-1.76 2.438-1.76 4.038 0 1.815.72 3.255 2.16 4.32 1.44 1.068 3.44 1.6 6 1.6 2.45 0 4.65-.56 6.6-1.678 1.94-1.122 3.34-2.774 4.2-4.962l1.68 6c-.96 2.508-2.68 4.455-5.16 5.84-2.48 1.388-5.62 2.08-9.4 2.08zm-36-.56v-42.72h10v42.72zm5.04-49.758c-1.87 0-3.4-.587-4.6-1.762-1.2-1.172-1.8-2.585-1.8-4.238 0-1.707.6-3.134 1.8-4.28 1.2-1.147 2.73-1.72 4.6-1.72s3.4.546 4.6 1.64c1.2 1.093 1.8 2.466 1.8 4.118 0 1.76-.59 3.242-1.76 4.442-1.17 1.198-2.72 1.8-4.64 1.8zm-31.52 50.318c-4.48 0-8.47-.945-11.96-2.84-3.5-1.892-6.23-4.492-8.2-7.8-1.98-3.305-2.96-7.065-2.96-11.28 0-4.265.98-8.038 2.96-11.318 1.97-3.282 4.7-5.854 8.2-7.72 3.49-1.867 7.48-2.8 11.96-2.8 4.16 0 7.82.838 11 2.52 3.17 1.678 5.59 4.146 7.24 7.398l-7.68 4.48c-1.28-2.025-2.84-3.52-4.68-4.48s-3.83-1.44-5.96-1.44c-2.45 0-4.67.535-6.64 1.602-1.97 1.066-3.52 2.598-4.64 4.598s-1.68 4.388-1.68 7.16c0 2.775.56 5.162 1.68 7.162s2.67 3.533 4.64 4.598c1.97 1.068 4.19 1.6 6.64 1.6 2.13 0 4.12-.478 5.96-1.44 1.84-.958 3.4-2.452 4.68-4.48l7.68 4.48c-1.65 3.2-4.07 5.668-7.24 7.401-3.18 1.734-6.84 2.599-11 2.599zm-52-8.56c2.45 0 4.64-.532 6.56-1.6 1.92-1.065 3.43-2.611 4.52-4.64 1.09-2.025 1.64-4.4 1.64-7.12 0-2.772-.55-5.16-1.64-7.16s-2.6-3.532-4.52-4.598c-1.92-1.067-4.08-1.602-6.48-1.602-2.45 0-4.63.535-6.52 1.602-1.89 1.066-3.4 2.598-4.52 4.598s-1.68 4.388-1.68 7.16c0 2.72.56 5.095 1.68 7.12 1.12 2.029 2.63 3.575 4.52 4.64 1.89 1.068 4.04 1.6 6.44 1.6zm0 8.56c-4.37 0-8.27-.945-11.68-2.84-3.41-1.892-6.11-4.492-8.08-7.8-1.97-3.305-2.96-7.065-2.96-11.28 0-4.265.99-8.038 2.96-11.318 1.97-3.282 4.67-5.854 8.08-7.72 3.41-1.867 7.31-2.8 11.68-2.8 4.43 0 8.36.933 11.8 2.8 3.44 1.866 6.13 4.426 8.08 7.678 1.95 3.255 2.92 7.042 2.92 11.36 0 4.215-.97 7.975-2.92 11.28-1.95 3.308-4.64 5.908-8.08 7.8-3.44 1.895-7.37 2.84-11.8 2.84zm-47.198 0c-3.575 0-7-.466-10.28-1.399s-5.88-2.066-7.801-3.401l3.84-7.599c1.92 1.228 4.213 2.239 6.88 3.039 2.666.8 5.333 1.2 8 1.2 3.146 0 5.426-.425 6.84-1.28 1.413-.852 2.12-2 2.12-3.44 0-1.172-.48-2.065-1.439-2.68-.961-.611-2.215-1.08-3.761-1.398-1.548-.322-3.268-.613-5.16-.882-1.894-.265-3.788-.625-5.679-1.08-1.895-.451-3.615-1.118-5.161-2-1.548-.88-2.8-2.065-3.76-3.56-.96-1.491-1.44-3.465-1.44-5.919 0-2.719.773-5.081 2.32-7.081 1.546-2 3.72-3.545 6.52-4.638 2.801-1.094 6.121-1.64 9.961-1.64 2.88 0 5.785.318 8.718.958 2.93.64 5.36 1.548 7.28 2.72l-3.84 7.6c-2.03-1.225-4.066-2.065-6.119-2.52-2.054-.452-4.094-.678-6.12-.678-3.039 0-5.294.453-6.759 1.36-1.468.906-2.201 2.053-2.201 3.438 0 1.281.481 2.24 1.44 2.88.96.64 2.213 1.148 3.761 1.52 1.545.375 3.265.68 5.159.92 1.893.242 3.773.602 5.64 1.08 1.869.48 3.589 1.135 5.159 1.96 1.57.828 2.84 1.988 3.8 3.482.96 1.493 1.44 3.439 1.44 5.838 0 2.668-.79 4.988-2.36 6.962-1.57 1.973-3.8 3.506-6.68 4.598-2.878 1.094-6.318 1.64-10.318 1.64zm-41.201 0c-3.574 0-7-.466-10.28-1.399s-5.88-2.066-7.8-3.401l3.84-7.599c1.92 1.228 4.213 2.239 6.88 3.039 2.666.8 5.333 1.2 8 1.2 3.146 0 5.426-.425 6.84-1.28 1.412-.852 2.118-2 2.118-3.44 0-1.172-.478-2.065-1.438-2.68-.96-.611-2.215-1.08-3.76-1.398-1.548-.322-3.268-.613-5.16-.882-1.894-.265-3.788-.625-5.68-1.08-1.895-.451-3.615-1.118-5.16-2-1.548-.88-2.802-2.065-3.76-3.56-.96-1.491-1.44-3.465-1.44-5.919 0-2.719.773-5.081 2.32-7.081 1.546-2 3.72-3.545 6.52-4.638 2.8-1.094 6.12-1.64 9.96-1.64 2.88 0 5.786.318 8.72.958 2.932.64 5.36 1.548 7.28 2.72l-3.84 7.6c-2.028-1.225-4.067-2.065-6.12-2.52-2.055-.452-4.095-.678-6.12-.678-3.04 0-5.294.453-6.76 1.36-1.467.906-2.2 2.053-2.2 3.438 0 1.281.48 2.24 1.44 2.88s2.212 1.148 3.76 1.52c1.546.375 3.266.68 5.158.92 1.894.242 3.775.602 5.642 1.08 1.865.48 3.585 1.135 5.16 1.96 1.573.828 2.84 1.988 3.8 3.482.96 1.493 1.44 3.439 1.44 5.838 0 2.668-.788 4.988-2.36 6.962-1.574 1.973-3.8 3.506-6.682 4.598-2.878 1.094-6.318 1.64-10.318 1.64zm-68.079-13.52 2.799-8.158h30.24l2.801 8.158zm-11.601 12.96 25.2-56h10.241l25.28 56h-10.881l-21.679-50.478h4.16l-21.6 50.478zm-43.119.56c-3.575 0-7-.466-10.28-1.399s-5.88-2.066-7.801-3.401l3.84-7.599c1.92 1.228 4.213 2.239 6.88 3.039 2.666.8 5.333 1.2 8 1.2 3.146 0 5.426-.425 6.84-1.28 1.413-.852 2.12-2 2.12-3.44 0-1.172-.48-2.065-1.439-2.68-.961-.611-2.215-1.08-3.761-1.398-1.548-.322-3.268-.613-5.16-.882-1.894-.265-3.788-.625-5.679-1.08-1.895-.451-3.615-1.118-5.161-2-1.548-.88-2.8-2.065-3.76-3.56-.96-1.491-1.44-3.465-1.44-5.919 0-2.719.773-5.081 2.32-7.081 1.546-2 3.72-3.545 6.52-4.638 2.801-1.094 6.121-1.64 9.961-1.64 2.88 0 5.785.318 8.72.958 2.932.64 5.359 1.548 7.28 2.72l-3.84 7.6c-2.029-1.225-4.068-2.065-6.121-2.52-2.054-.452-4.094-.678-6.12-.678-3.039 0-5.294.453-6.759 1.36-1.468.906-2.201 2.053-2.201 3.438 0 1.281.481 2.24 1.44 2.88.96.64 2.213 1.148 3.761 1.52 1.545.375 3.265.68 5.159.92 1.893.242 3.773.602 5.64 1.08 1.866.48 3.586 1.135 5.16 1.96 1.573.828 2.84 1.988 3.8 3.482.961 1.493 1.44 3.439 1.44 5.838 0 2.668-.788 4.988-2.359 6.962-1.575 1.973-3.801 3.506-6.681 4.598-2.879 1.094-6.319 1.64-10.319 1.64zm-42.88 0c-4.748 0-8.893-.945-12.44-2.84-3.548-1.892-6.293-4.492-8.24-7.8-1.947-3.305-2.92-7.065-2.92-11.28 0-4.265.945-8.038 2.84-11.318 1.892-3.282 4.507-5.854 7.84-7.72 3.332-1.867 7.133-2.8 11.4-2.8 4.16 0 7.865.906 11.12 2.72 3.252 1.813 5.812 4.373 7.68 7.678 1.867 3.308 2.8 7.2 2.8 11.682 0 .426-.015.907-.04 1.44-.028.533-.068 1.038-.12 1.518h-35.6v-6.64h30.32l-3.92 2.08c.053-2.452-.453-4.612-1.52-6.478-1.068-1.867-2.52-3.334-4.36-4.402-1.84-1.065-3.96-1.598-6.36-1.598-2.453 0-4.6.533-6.44 1.598-1.84 1.068-3.28 2.548-4.32 4.44-1.04 1.895-1.56 4.121-1.56 6.682v1.598c0 2.56.587 4.828 1.76 6.8 1.173 1.975 2.827 3.495 4.96 4.56 2.132 1.068 4.587 1.6 7.36 1.6 2.4 0 4.56-.372 6.48-1.119 1.92-.746 3.625-1.921 5.12-3.519l5.36 6.16c-1.92 2.238-4.333 3.958-7.24 5.158-2.907 1.201-6.228 1.8-9.96 1.8zm-43.199-.56v-42.72h10v42.72zm5.04-49.758c-1.866 0-3.398-.587-4.6-1.762-1.2-1.172-1.798-2.585-1.798-4.238 0-1.707.598-3.134 1.798-4.28 1.202-1.147 2.734-1.72 4.6-1.72 1.867 0 3.4.546 4.602 1.64 1.198 1.093 1.798 2.466 1.798 4.118 0 1.76-.586 3.242-1.76 4.442-1.173 1.198-2.72 1.8-4.64 1.8zm-22.878 50.318c-4.694 0-8.32-1.212-10.88-3.64-2.56-2.425-3.84-6.012-3.84-10.759v-38.321h10v38.08c0 2.028.52 3.602 1.56 4.72 1.038 1.12 2.492 1.682 4.36 1.682 2.238 0 4.106-.587 5.6-1.762l2.798 7.12c-1.173.96-2.613 1.68-4.318 2.16-1.708.482-3.467.72-5.28.72zm-21.76-35.28v-8h28.478v8zm-17.44 34.72v-42.72h10v42.72zm5.04-49.758c-1.867 0-3.4-.587-4.6-1.762-1.202-1.172-1.8-2.585-1.8-4.238 0-1.707.598-3.134 1.8-4.28 1.2-1.147 2.733-1.72 4.6-1.72 1.865 0 3.4.546 4.6 1.64 1.2 1.093 1.8 2.466 1.8 4.118 0 1.76-.588 3.242-1.76 4.442-1.174 1.198-2.722 1.8-4.64 1.8zm-28.159 49.758v-59.36h10v59.36zm-23.119 0v-42.72h10v42.72zm5.04-49.758c-1.866 0-3.4-.587-4.6-1.762-1.2-1.172-1.8-2.585-1.8-4.238 0-1.707.6-3.134 1.8-4.28 1.2-1.147 2.734-1.72 4.6-1.72 1.867 0 3.4.546 4.6 1.64 1.2 1.093 1.8 2.466 1.8 4.118 0 1.76-.586 3.242-1.76 4.442-1.173 1.198-2.72 1.8-4.64 1.8zm-37.36 41.758c2.4 0 4.547-.532 6.44-1.6 1.894-1.065 3.4-2.611 4.52-4.64 1.12-2.025 1.68-4.4 1.68-7.12 0-2.772-.56-5.16-1.68-7.16s-2.626-3.532-4.52-4.598c-1.893-1.067-4.04-1.602-6.44-1.602s-4.56.535-6.48 1.602c-1.92 1.066-3.44 2.598-4.56 4.598s-1.68 4.388-1.68 7.16c0 2.72.56 5.095 1.68 7.12 1.12 2.029 2.64 3.575 4.56 4.64 1.92 1.068 4.08 1.6 6.48 1.6zm1.12 8.56c-3.628 0-6.853-.8-9.68-2.399-2.826-1.601-5.053-4.013-6.68-7.241-1.628-3.225-2.44-7.318-2.44-12.28 0-5.012.84-9.118 2.52-12.318 1.68-3.202 3.947-5.587 6.8-7.161 2.852-1.572 6.012-2.359 9.48-2.359 4.214 0 7.932.906 11.16 2.72 3.227 1.813 5.787 4.346 7.68 7.598 1.892 3.255 2.84 7.095 2.84 11.52 0 4.428-.948 8.268-2.84 11.521-1.893 3.254-4.453 5.8-7.68 7.641-3.228 1.838-6.946 2.758-11.16 2.758zm-23.68-.56v-59.36h10v26.56l-.8 11.36.32 11.36v10.08zm-22.238 0v-8.64l-.56-1.838v-15.122c0-2.932-.88-5.211-2.64-6.84-1.76-1.625-4.428-2.44-8-2.44-2.4 0-4.76.375-7.08 1.122s-4.28 1.786-5.88 3.118l-3.92-7.28c2.292-1.758 5.026-3.08 8.2-3.96 3.172-.878 6.466-1.318 9.88-1.318 6.186 0 10.973 1.478 14.36 4.44 3.386 2.958 5.08 7.533 5.08 13.719v25.039zm-13.44.56c-3.2 0-6-.546-8.4-1.64-2.4-1.092-4.254-2.612-5.56-4.56-1.308-1.945-1.96-4.145-1.96-6.6 0-2.4.572-4.56 1.72-6.48 1.146-1.92 3.025-3.44 5.64-4.56 2.612-1.118 6.08-1.68 10.4-1.68h12.4v6.64h-11.68c-3.415 0-5.707.548-6.88 1.642-1.174 1.093-1.76 2.438-1.76 4.038 0 1.815.72 3.255 2.16 4.32 1.44 1.068 3.44 1.6 6 1.6 2.452 0 4.652-.56 6.6-1.678 1.946-1.122 3.346-2.774 4.2-4.962l1.68 6c-.96 2.508-2.68 4.455-5.16 5.84-2.48 1.388-5.614 2.08-9.4 2.08zm-40.88 0c-3.575 0-7-.466-10.28-1.399s-5.88-2.066-7.802-3.401l3.84-7.599c1.922 1.228 4.214 2.239 6.88 3.039 2.667.8 5.334 1.2 8 1.2 3.148 0 5.428-.425 6.84-1.28 1.414-.852 2.12-2 2.12-3.44 0-1.172-.478-2.065-1.438-2.68-.962-.611-2.215-1.08-3.76-1.398-1.548-.322-3.268-.613-5.16-.882-1.894-.265-3.788-.625-5.68-1.08-1.895-.451-3.615-1.118-5.16-2-1.548-.88-2.802-2.065-3.762-3.56-.958-1.491-1.44-3.465-1.44-5.919 0-2.719.774-5.081 2.322-7.081 1.546-2 3.72-3.545 6.518-4.638 2.802-1.094 6.122-1.64 9.962-1.64 2.88 0 5.786.318 8.72.958 2.932.64 5.358 1.548 7.28 2.72l-3.84 7.6c-2.028-1.225-4.068-2.065-6.122-2.52-2.053-.452-4.093-.678-6.12-.678-3.038 0-5.292.453-6.758 1.36-1.468.906-2.2 2.053-2.2 3.438 0 1.281.48 2.24 1.44 2.88.958.64 2.212 1.148 3.76 1.52 1.545.375 3.265.68 5.158.92 1.894.242 3.774.602 5.642 1.08 1.865.48 3.585 1.135 5.16 1.96 1.572.828 2.84 1.988 3.798 3.482.962 1.493 1.44 3.439 1.44 5.838 0 2.668-.786 4.988-2.358 6.962-1.575 1.973-3.802 3.506-6.682 4.598-2.878 1.094-6.318 1.64-10.318 1.64zm-36.319-.56v-42.72h10v42.72zm5.04-49.758c-1.867 0-3.4-.587-4.6-1.762-1.201-1.172-1.8-2.585-1.8-4.238 0-1.707.599-3.134 1.8-4.28 1.2-1.147 2.733-1.72 4.6-1.72 1.865 0 3.4.546 4.6 1.64 1.2 1.093 1.8 2.466 1.8 4.118 0 1.76-.588 3.242-1.761 4.442-1.172 1.198-2.72 1.8-4.639 1.8zm-59.759 40.958h13.599c4.16 0 7.787-.8 10.88-2.398 3.092-1.602 5.48-3.841 7.16-6.722 1.68-2.88 2.52-6.24 2.52-10.08 0-3.892-.84-7.265-2.52-10.118-1.68-2.854-4.068-5.08-7.16-6.682-3.093-1.598-6.72-2.398-10.88-2.398h-13.599zm-10.401 8.8v-56h24.48c6.08 0 11.413 1.175 16 3.522 4.587 2.346 8.16 5.598 10.72 9.758 2.56 4.162 3.84 9.068 3.84 14.72 0 5.602-1.28 10.495-3.84 14.68-2.56 4.188-6.133 7.455-10.72 9.8-4.587 2.348-9.92 3.52-16 3.52zm608.31-96v-59.36h10v59.36zm-22.238 0v-8.64l-.559-1.838v-15.122c0-2.932-.881-5.212-2.641-6.84-1.759-1.625-4.427-2.44-8-2.44-2.4 0-4.759.375-7.079 1.122-2.321.746-4.28 1.786-5.881 3.118l-3.92-7.28c2.293-1.758 5.027-3.08 8.2-3.96 3.172-.878 6.467-1.318 9.88-1.318 6.187 0 10.973 1.478 14.36 4.44 3.387 2.958 5.081 7.533 5.081 13.72v25.038zm-13.44.56c-3.2 0-6-.546-8.399-1.64-2.4-1.092-4.254-2.612-5.56-4.56-1.309-1.945-1.961-4.145-1.961-6.6 0-2.4.573-4.56 1.72-6.48s3.027-3.44 5.64-4.56c2.612-1.118 6.08-1.68 10.4-1.68h12.4v6.64h-11.68c-3.413 0-5.707.548-6.88 1.642-1.173 1.093-1.76 2.438-1.76 4.038 0 1.815.72 3.255 2.16 4.32 1.44 1.068 3.44 1.6 6 1.6 2.453 0 4.652-.56 6.6-1.678 1.947-1.122 3.347-2.774 4.201-4.962l1.679 6c-.959 2.508-2.679 4.455-5.16 5.84-2.48 1.388-5.613 2.08-9.4 2.08zm-29.199 0c-4.694 0-8.32-1.212-10.88-3.64-2.56-2.425-3.84-6.012-3.84-10.758v-38.322h10v38.08c0 2.028.52 3.602 1.56 4.72 1.039 1.12 2.492 1.682 4.359 1.682 2.24 0 4.107-.587 5.601-1.762l2.799 7.12c-1.173.96-2.613 1.68-4.319 2.16-1.708.482-3.468.72-5.28.72zm-21.76-35.28v-8h28.479v8zm-49.12 34.72v-42.72h9.519v11.522l-1.679-3.522c1.492-2.72 3.667-4.812 6.52-6.28 2.852-1.465 6.147-2.198 9.88-2.198 3.412 0 6.466.666 9.16 2 2.692 1.333 4.812 3.373 6.36 6.118 1.546 2.748 2.32 6.28 2.32 10.602v24.478h-10v-23.198c0-3.787-.894-6.614-2.68-8.48-1.788-1.867-4.28-2.8-7.48-2.8-2.346 0-4.428.478-6.24 1.44-1.814.958-3.214 2.386-4.2 4.28-.988 1.893-1.48 4.28-1.48 7.158v21.6zm-29.678.56c-4.748 0-8.895-.945-12.44-2.84-3.548-1.892-6.295-4.492-8.242-7.8-1.946-3.305-2.918-7.065-2.918-11.28 0-4.265.945-8.038 2.84-11.318 1.892-3.282 4.506-5.854 7.84-7.72 3.332-1.867 7.132-2.8 11.398-2.8 4.162 0 7.867.906 11.12 2.72 3.254 1.813 5.814 4.373 7.682 7.678 1.865 3.308 2.8 7.2 2.8 11.682 0 .426-.015.906-.042 1.44-.026.533-.066 1.038-.118 1.518h-35.602v-6.64h30.322l-3.922 2.08c.054-2.452-.453-4.612-1.52-6.478-1.066-1.867-2.518-3.334-4.358-4.402-1.84-1.065-3.962-1.598-6.362-1.598-2.452 0-4.6.533-6.44 1.598-1.84 1.068-3.28 2.548-4.32 4.44-1.038 1.895-1.56 4.122-1.56 6.682v1.598c0 2.56.588 4.828 1.762 6.8 1.172 1.975 2.826 3.495 4.958 4.56 2.134 1.068 4.588 1.6 7.362 1.6 2.4 0 4.56-.372 6.478-1.118 1.922-.747 3.627-1.922 5.122-3.52l5.358 6.16c-1.918 2.238-4.333 3.958-7.238 5.158-2.908 1.202-6.228 1.8-9.96 1.8zm-104.4-.56v-42.72h9.52v11.36l-1.68-3.36c1.44-2.772 3.533-4.88 6.28-6.318 2.746-1.44 5.88-2.16 9.4-2.16 4 0 7.48.986 10.44 2.958 2.961 1.975 4.92 4.96 5.88 8.96l-3.919-1.36c1.385-3.198 3.679-5.758 6.879-7.68 3.2-1.92 6.906-2.878 11.121-2.878 3.411 0 6.44.666 9.079 2 2.641 1.333 4.706 3.373 6.201 6.118 1.492 2.748 2.239 6.28 2.239 10.602v24.478h-10v-23.198c0-3.787-.828-6.614-2.48-8.48-1.654-1.867-4.028-2.8-7.12-2.8-2.187 0-4.12.478-5.799 1.44-1.68.958-2.989 2.373-3.921 4.238-.934 1.868-1.4 4.242-1.4 7.122v21.678h-10v-23.198c0-3.787-.827-6.614-2.48-8.48-1.654-1.867-4.028-2.8-7.12-2.8-2.188 0-4.12.478-5.8 1.44-1.679.958-2.988 2.373-3.92 4.238-.934 1.868-1.4 4.242-1.4 7.122v21.678zm-32.319-8c2.4 0 4.547-.532 6.44-1.6 1.893-1.065 3.4-2.612 4.52-4.64 1.121-2.025 1.68-4.4 1.68-7.12 0-2.772-.559-5.16-1.68-7.16-1.12-2-2.627-3.532-4.52-4.598-1.893-1.067-4.04-1.602-6.44-1.602s-4.56.535-6.479 1.602c-1.921 1.066-3.44 2.598-4.561 4.598-1.12 2-1.68 4.388-1.68 7.16 0 2.72.56 5.095 1.68 7.12 1.121 2.028 2.64 3.575 4.561 4.64 1.919 1.068 4.079 1.6 6.479 1.6zm1.12 8.56c-3.468 0-6.628-.8-9.48-2.398-2.853-1.602-5.119-4.014-6.8-7.242-1.68-3.225-2.52-7.318-2.52-12.28 0-5.012.813-9.118 2.44-12.318 1.627-3.202 3.853-5.587 6.68-7.16 2.827-1.574 6.052-2.36 9.68-2.36 4.213 0 7.932.906 11.16 2.72 3.227 1.813 5.787 4.346 7.68 7.598 1.893 3.255 2.841 7.095 2.841 11.52 0 4.428-.948 8.28-2.841 11.56s-4.453 5.828-7.68 7.64c-3.228 1.815-6.947 2.72-11.16 2.72zm-23.68 14.962v-58.242h9.52v10.08l-.32 11.36.8 11.36v25.442zm-32.399-23.522c2.452 0 4.64-.532 6.56-1.6 1.92-1.065 3.427-2.612 4.52-4.64 1.092-2.025 1.64-4.4 1.64-7.12 0-2.772-.548-5.16-1.64-7.16-1.093-2-2.6-3.532-4.52-4.598-1.92-1.067-4.08-1.602-6.48-1.602-2.453 0-4.628.535-6.52 1.602-1.894 1.066-3.4 2.598-4.52 4.598s-1.68 4.388-1.68 7.16c0 2.72.56 5.095 1.68 7.12 1.12 2.028 2.626 3.575 4.52 4.64 1.892 1.068 4.039 1.6 6.44 1.6zm0 8.56c-4.373 0-8.268-.945-11.68-2.84-3.413-1.892-6.108-4.492-8.08-7.8-1.974-3.305-2.96-7.065-2.96-11.28 0-4.265.986-8.038 2.96-11.318 1.972-3.282 4.667-5.854 8.08-7.72 3.412-1.867 7.307-2.8 11.68-2.8 4.427 0 8.36.933 11.8 2.8 3.44 1.866 6.132 4.426 8.08 7.678 1.946 3.255 2.92 7.042 2.92 11.36 0 4.215-.974 7.975-2.92 11.28-1.948 3.308-4.64 5.908-8.08 7.8-3.44 1.895-7.373 2.84-11.8 2.84zm-42.32-.56v-59.36h10v59.36zm-29.678.56c-4.748 0-8.895-.945-12.44-2.84-3.548-1.892-6.295-4.492-8.242-7.8-1.945-3.305-2.918-7.065-2.918-11.28 0-4.265.945-8.038 2.84-11.318 1.892-3.282 4.506-5.854 7.84-7.72 3.332-1.867 7.132-2.8 11.4-2.8 4.16 0 7.865.906 11.118 2.72 3.254 1.813 5.814 4.373 7.682 7.678 1.866 3.308 2.8 7.2 2.8 11.682 0 .426-.015.906-.04 1.44-.028.533-.068 1.038-.12 1.518h-35.602v-6.64h30.322l-3.922 2.08c.054-2.452-.453-4.612-1.518-6.478-1.068-1.867-2.52-3.334-4.36-4.402-1.84-1.065-3.962-1.598-6.36-1.598-2.454 0-4.602.533-6.44 1.598-1.84 1.068-3.28 2.548-4.322 4.44-1.038 1.895-1.56 4.122-1.56 6.682v1.598c0 2.56.588 4.828 1.762 6.8 1.173 1.975 2.826 3.495 4.958 4.56 2.134 1.068 4.588 1.6 7.362 1.6 2.4 0 4.56-.372 6.478-1.118 1.922-.747 3.627-1.922 5.122-3.52l5.36 6.16c-1.92 2.238-4.334 3.958-7.24 5.158-2.908 1.202-6.228 1.8-9.96 1.8zm-53.759-.56-18.32-42.72h10.399l15.761 37.682h-5.12l16.319-37.682h9.6l-18.32 42.72zm-40.24.56c-4.748 0-8.895-.945-12.44-2.84-3.548-1.892-6.295-4.492-8.241-7.8-1.946-3.305-2.919-7.065-2.919-11.28 0-4.265.945-8.038 2.84-11.318 1.892-3.282 4.507-5.854 7.84-7.72 3.332-1.867 7.132-2.8 11.4-2.8 4.16 0 7.865.906 11.119 2.72 3.253 1.813 5.813 4.373 7.681 7.678 1.867 3.308 2.8 7.2 2.8 11.682 0 .426-.015.906-.04 1.44-.028.533-.068 1.038-.12 1.518h-35.601v-6.64h30.321l-3.921 2.08c.053-2.452-.454-4.612-1.519-6.478-1.068-1.867-2.52-3.334-4.36-4.402-1.84-1.065-3.961-1.598-6.36-1.598-2.453 0-4.601.533-6.44 1.598-1.84 1.068-3.28 2.548-4.321 4.44-1.039 1.895-1.56 4.122-1.56 6.682v1.598c0 2.56.588 4.828 1.761 6.8 1.173 1.975 2.827 3.495 4.959 4.56 2.133 1.068 4.588 1.6 7.361 1.6 2.4 0 4.56-.372 6.479-1.118 1.921-.747 3.626-1.922 5.121-3.52l5.36 6.16c-1.92 2.238-4.333 3.958-7.24 5.158-2.908 1.202-6.228 1.8-9.96 1.8zm-74.799-9.36h13.599c4.16 0 7.787-.8 10.88-2.398 3.092-1.602 5.48-3.84 7.16-6.722 1.68-2.88 2.52-6.24 2.52-10.08 0-3.892-.84-7.265-2.52-10.118-1.68-2.854-4.068-5.08-7.16-6.682-3.093-1.598-6.72-2.398-10.88-2.398h-13.599zm-10.401 8.8v-56h24.48c6.08 0 11.413 1.175 16 3.522 4.587 2.346 8.16 5.598 10.72 9.758 2.56 4.162 3.84 9.068 3.84 14.72 0 5.602-1.28 10.495-3.84 14.68-2.56 4.188-6.133 7.455-10.72 9.8-4.587 2.348-9.92 3.52-16 3.52zm-68.041-277.453c-2.532.176-1.704 1.036-7.35 1.036-5.625 0-5.896.2814-7-1.7453-.833-1.5307-8.166-10.916-9.354-13.29067-1.208-2.396-2.563-.843993-2.563.50401 0 0-.296 13.87596-2.233 19.10926-.683 1.8654-2.215 3.2507-4.09 3.7667-1.853.5147-11.26 3.1867-14 7-.853 1.1867.708 2.3747 2.208 2.5467 1.552.1867 10.262.208 11.262.5107 1.738.5053 1.738 1.9893 1.208 3.5933-.5 1.5307-2.386 12.26-4.271 13.6453-1.865 1.36 1.208 2.2294 2.563 1.36 1.369-.8493 13.322-12.984 14.53-14.6613 1.178-1.708 2.875-1.032 4.24.1613 1.375 1.2134 13.604 7.0574 15.864 10.4214.688 1.0106 2.204-1.0201 1.543-3.0721-.677-2.0626-9.032-14.5213-9.371-16.74-.369-2.2026.839-4.4173 2.371-5.2813 1.531-.86 4.739-4.2186 7-4.636 2.911-.5 4.676-3.3853 4.113-4.228-1.02-1.5533-4.113-.188-6.67 0zm-67.032 78.776c-2.016 0-5.318 1.228-10.516 4.9107 0 0-20.572 14.1773-66.302 72.6613-.98 1.371-1.792 1.871-2.464 1.871-1.718 0-2.468-3.323-2.468-3.323-2.6-8.677-13.308-42.553-38.224-42.553-21.125 0-34.453 13.614-44.599 17.662 0 0-6.932 3.474-3.464 10.719 2.688 5.609 7.13 14.359 16.688 14.359 2.766 0 5.963-.73 9.666-2.484 0 0 6.663-3.115 14.521-3.115 1.126 0 2.26.063 3.418.208 0 0 4.358 18.251 1.468 42.281-2.916 24.047 4.625 50.594 4.625 50.594s-40.687 29.125-35.032 51.609c0 0 1.032 4.443 5.495 4.443 3.016 0 7.589-2.02 14.464-8.786 0 0 4.073-3.172 8.109-3.766 0 0-3.703 48.947 14.871 48.947.166 0 .333-.005.5-.01h.03c.522 0 6.344-.271 6.896-12.452.594-12.751 3.782-26.641 3.782-26.641s10.416-17.656 13.885-22.875c3.479-5.203 10.708-14.469 6.656-57.609 0 0 24.907-52.703 57.344-99.314 12.151-22.296 20.833-31.27 22.593-32.4263 1.12-.76 1.76-4.9107-1.942-4.9107zm-29.588 268.823c-1.595 0-3.366-.016-5.323-.016-26.043 0-85.521 2.62-228.86016 77.655-7.76563 4.563-5.135424 9.485 1.04687 9.485 1.96926 0 4.30259-.5 6.77599-1.671 10.224-4.814 27.6881-15.657 36.7344-18.657 9.0209-3 14.4376 1.204 35.5157-9.624 20.0322-10.328 90.7082-36.954 145.2442-36.954 2.803 0 5.574.068 8.282.219 9-.61 12.625-18.656.584-20.437zm-45.584-223.047c.625 0 1.27-.043 1.953-.115l1.901-.322c15.938-.016 16.198-20.86 15.468-26.896 0 0-.5-26.4696-18.65-27.2456l-1.88.3173c-17.97 2.8853-15.37 29.2503-15.37 29.2503 0 5.807 2.495 25.011 16.578 25.011z" fill="#000"></path></svg> 